PathFileType	4	(X/Y/Z)	RBDS08\RBDS08runT35.trc
DataRate	CameraRate	NumFrames	NumMarkers	Units	OrigDataRate	OrigDataStartFrame	OrigNumFrames
150.000000	150.000000	4	33	mm	150.000000	3937	4500
Frame#	Time	L.ASIS			L.Heel.Bottom			L.Heel.Lateral			L.Heel.Top			L.Iliac.Crest			L.MT1			L.MT5			L.PSIS			L.Shank.Bottom.Lateral			L.Shank.Bottom.Medial			L.Shank.Top.Lateral			L.Shank.Top.Medial			L.Thigh.Bottom.Lateral			L.Thigh.Bottom.Medial			L.Thigh.Top.Lateral			L.Thigh.Top.Medial			R.ASIS			R.ASY			R.Heel.Bottom			R.Heel.Lateral			R.Heel.Top			R.Iliac.Crest			R.MT1			R.MT5			R.PSIS			R.Shank.Bottom.Lateral			R.Shank.Bottom.Medial			R.Shank.Top.Lateral			R.Shank.Top.Medial			R.Thigh.Bottom.Lateral			R.Thigh.Bottom.Medial			R.Thigh.Top.Lateral			R.Thigh.Top.Medial			
		X1	Y1	Z1	X2	Y2	Z2	X3	Y3	Z3	X4	Y4	Z4	X5	Y5	Z5	X6	Y6	Z6	X7	Y7	Z7	X8	Y8	Z8	X9	Y9	Z9	X10	Y10	Z10	X11	Y11	Z11	X12	Y12	Z12	X13	Y13	Z13	X14	Y14	Z14	X15	Y15	Z15	X16	Y16	Z16	X17	Y17	Z17	X18	Y18	Z18	X19	Y19	Z19	X20	Y20	Z20	X21	Y21	Z21	X22	Y22	Z22	X23	Y23	Z23	X24	Y24	Z24	X25	Y25	Z25	X26	Y26	Z26	X27	Y27	Z27	X28	Y28	Z28	X29	Y29	Z29	X30	Y30	Z30	X31	Y31	Z31	X32	Y32	Z32	X33	Y33	Z33	

3938	26.24666666666667	2159.118649382469	1003.732051699506	904.1110365300766	1946.262072095884	308.9878059710169	950.6611105931387	1981.269941091344	308.4376256941846	905.9985847114865	1987.910053202035	338.4152025878116	958.5828565735784	2102.367543733274	1078.453174810879	859.6970912492586	2133.010086174159	176.0688468411141	972.7866742106221	2092.736340092402	200.8927307338354	870.5142032262319	1987.448633425074	1043.379612738299	942.9205737753085	2092.753476920934	366.9970434174253	901.3760122813762	2066.284201395488	393.0536621503331	937.6046837271074	2142.734548839735	429.9165438930759	889.1370943048819	2120.39250573373	457.6486093739205	928.8169851897998	2286.374546005221	707.5554950048875	841.8910697760742	2243.299323447599	660.1035669052526	877.3071915840603	2200.622826984966	775.8421898902664	829.1913388013588	2158.836667308436	730.1926723714521	861.3982019887317	2137.942713844527	990.4168128599291	1127.563303875941	-41841656150.42265	10261577384.25455	-21845758187.89786	1557.956792497127	133.1698338715613	1038.485882204574	1590.594015261111	133.8282309394224	1079.648667592319	1590.413929429107	171.0892388036453	1036.830881255601	2104.154241045171	1065.021442775928	1144.836663947553	1759.350635569075	47.23015644681486	995.2805325019353	1727.95362945369	55.93436140853715	1098.610728783532	1982.146541530362	1045.60647762646	1044.430826601565	1685.926319900236	234.8671128811824	1092.9545520941	1662.283244973217	257.5826804373514	1048.570400661074	1716.004287090417	308.6351565169183	1110.538490175448	1697.850536375458	327.5857164704844	1063.35080081819	1925.669915936143	618.0624795320409	1158.783022397951	1871.100327015981	637.8042870452281	1113.514291564381	1949.509278984587	725.0671558922066	1173.359794855103	1898.23038035373	742.9601542246102	1130.781794835132	
3939	26.25333333333333	2160.638242976572	1008.144530180046	903.5648431484556	1968.511049007207	288.3726178784033	950.4055872176649	2003.465771905126	290.273949566752	905.7741553816951	2008.066872743451	320.6852705497513	958.4073166217881	2103.522234813163	1083.283987283719	859.1921891462686	2164.14934165945	168.6514197297668	972.4703423204977	2122.199589166429	190.63786525742	870.2342007864257	1989.680760626833	1048.226492552498	943.3397408607401	2111.020831064131	356.311213676524	901.0892634991161	2082.935097458761	380.6415856349519	937.2551750740022	2156.763334724822	422.3000229477334	888.6557451168543	2132.786224748728	448.56678911289	928.3789106581912	2288.932409478038	714.4295923528541	842.3421975243615	2245.812161428287	666.426060869976	876.9157299525141	2202.782582192702	782.1481534224694	829.1091857797531	2161.094878570952	736.1306307163865	860.7173534292765	2141.169808368534	992.0626551500761	1126.203710011451	-41876269297.1606	10270067662.0083	-21863828672.53379	1545.073903910546	148.637098124032	1035.308848842087	1576.709745848474	146.7960989554655	1077.004495994899	1579.845812898491	184.2388000940625	1034.73320183619	2110.103118326536	1067.893206461411	1143.595061180885	1740.158821412182	47.83653344907232	995.2526346055727	1707.293623668829	59.02681743791943	1098.339714833473	1985.361296280254	1049.719091803827	1045.229974688386	1672.442770665713	244.5869634284456	1092.08698148437	1650.209316278823	266.7074659645872	1046.854365952219	1702.357002140629	318.4797033827493	1109.48421908811	1685.395228327004	336.894908575269	1061.693121833447	1917.2476124119	626.2669000385188	1159.472952751908	1863.277003021298	647.6776640168024	1114.135510184193	1944.664731968708	732.4568270867802	1173.889305408981	1894.127693688065	751.8625355659535	1131.055945311857	
3940	26.26	2162.018448953702	1012.158054676641	902.8973393374139	1991.764506750399	268.0030837683333	950.223225171642	2026.518957431801	272.2980639505461	905.5900754820684	2029.06612152434	303.0187626718919	958.2607205227621	2104.717150270349	1087.769561435163	858.6470782917389	2195.308379317064	161.931236842814	972.2524481443189	2151.915436551735	180.9547801279649	870.0526470283091	1991.879885625016	1052.797734216795	943.7838161906702	2129.690387997417	345.5184237516941	900.8238771584796	2100.103116724246	368.0615276030408	936.8869781169277	2171.008923613888	414.2762314365804	888.1479042754187	2145.503858458334	439.0160612722557	927.892049538374	2290.750034381932	720.1870674210463	842.8399166864893	2247.446846130628	671.7319698959283	876.5224284215392	2204.365494938891	787.5670961835986	829.1397935133368	2162.660032359488	741.2919395235683	860.1627392779593	2144.378631950266	993.7215927261608	1124.804253589746	-41910901527.57418	10278562621.62482	-21881909119.51094	1533.627260013304	164.6098992085679	1031.619808217645	1563.868389276475	160.3053478581504	1073.967641362664	1570.595336740771	197.7163673733143	1032.375367894053	2115.560181740951	1070.65691168223	1142.39292438141	1721.62284277413	49.16943347232283	995.4557056831792	1686.921812617307	62.75689037695505	1098.051272554958	1988.535496767573	1053.691098344533	1045.992397662346	1660.069941631571	254.4716957302393	1091.203489833945	1639.410015128291	275.9017289498847	1045.050597718575	1689.921148322219	328.4744386901183	1108.332744382176	1674.263123168588	346.2793467795587	1059.907658875166	1909.83078486842	634.3927680107063	1160.115858904126	1856.552289394157	657.2093997927976	1114.61383251462	1940.416704512066	739.7478108093993	1174.342217818564	1890.733903189705	760.4151224434447	1131.128570443341	
3941	26.26666666666667	2163.238373813531	1015.743333422348	902.147258413407	2015.882117147534	247.9816232426244	950.0694024558949	2050.311009393635	254.5899653377462	905.4161656101135	2050.772640233716	285.5092291136127	958.0967384753757	2105.952849091696	1091.880742082619	858.0616814935977	2226.313976185972	155.9516487510907	972.2078171411908	2181.757131779567	171.8751385091384	870.0182465496351	1994.019532239808	1057.031615765882	944.2121929416094	2148.647161264726	334.6741728752974	900.5555102910668	2117.675003673936	355.3846108433827	936.4789127843444	2185.39358613968	405.8846017794488	887.5882202769239	2158.460021776521	429.0532785501408	927.3219011549537	2291.870361639608	724.7441950787327	843.3072513335042	2248.266114380702	675.9543432879482	876.1030317069298	2205.406789719888	792.0114157104052	829.2209142312975	2163.574843677947	745.5912601421609	859.70719849048	2147.498532596783	995.4456448255529	1123.417838443288	-41945552846.92272	10287062264.39463	-21899999531.5747	1523.421969881135	180.8750841478505	1027.486271220375	1551.904194782498	174.2303248527916	1070.59089970016	1562.40585245279	211.3747757688252	1029.800731932675	2120.434703894011	1073.344290813473	1141.248839014695	1703.699291198089	51.42774475142944	995.9291689524481	1666.825807218168	67.26446374592517	1097.745920096297	1991.60128314444	1057.475132846397	1046.683217682712	1648.690482301976	264.4482422258114	1090.310779273748	1629.707625754034	285.1355734115843	1043.212189940963	1678.64884389625	338.5125029608622	1107.105863878494	1664.363162405187	355.6660917555294	1058.048640206691	1903.409502369334	642.2883433087248	1160.619687335033	1850.921428274205	666.2532692291775	1114.83286814318	1936.746350446396	746.827991126085	1174.630522748213	1888.028671169042	768.5134240928776	1130.898295309791	
